<?xml version="1.0" encoding="UTF-8"?>
<svg width="200pt" height="200pt" version="1.1" viewBox="0 -50 700 700" xmlns="http://www.w3.org/2000/svg" xmlns:xlink="http://www.w3.org/1999/xlink">
 <g>
  <path d="m457.63 325.51c-9.3008-4.0469-21.969-22.496-30.801-44.867-5.9375-15.047-23.637-59.535-71.613-62.934-0.95703-0.20703-1.9492-0.33203-2.9688-0.33203-0.48828 0-0.92578 0.074219-1.4102 0.078125-0.48047-0.003906-0.91797-0.078125-1.4102-0.078125-1.0195 0-2.0117 0.125-2.9688 0.33203-47.965 3.3984-65.672 47.887-71.613 62.934-8.8242 22.371-21.492 40.82-30.801 44.871-39.777 17.312-63.648 59.203-58.039 101.88 5.1445 39.133 33.582 67.234 74.199 73.328 4.7539 0.71094 9.543 1.0625 14.336 1.0625 13.059 0 26.117-2.6328 38.41-7.8008 5.3711-2.2578 10.23-4.8828 14.93-7.4141 8.1211-4.3867 15.227-8.1758 22.961-9.0547 7.7344 0.87891 14.84 4.6719 22.961 9.0547 4.6992 2.5312 9.5586 5.1562 14.934 7.4141 12.293 5.168 25.352 7.8008 38.41 7.8008 4.7891 0 9.5742-0.35156 14.332-1.0625 40.621-6.0938 69.059-34.188 74.207-73.328 5.6055-42.68-18.262-84.57-58.055-101.89zm30.285 98.234c-3.5 26.641-22.418 45.062-50.598 49.285-12.441 1.8711-25.848 0.14062-37.738-4.8477-4.1211-1.7344-8.1797-3.9219-12.48-6.2422-8.9023-4.8047-18.84-10.137-30.945-11.969-1.4297-0.42188-2.9219-0.67578-4.4922-0.62109-0.28125 0.011719-0.54297 0.054688-0.81641 0.074219-0.28125-0.015625-0.53906-0.0625-0.81641-0.074219-1.5195-0.054687-2.9727 0.19531-4.375 0.59766-12.164 1.8125-22.137 7.168-31.07 11.988-4.3008 2.3242-8.3594 4.5117-12.48 6.2422-11.891 4.9961-25.289 6.7188-37.738 4.8477-28.18-4.2227-47.09-22.645-50.598-49.285-3.2656-24.84 8.3086-58.141 41.453-72.555 23.852-10.383 39.891-45.605 45.672-60.266 12.348-31.266 27.355-44.941 49.945-45.488 22.598 0.54688 37.605 14.223 49.945 45.488 5.7852 14.66 21.816 49.887 45.668 60.262 33.152 14.422 44.734 47.723 41.465 72.562z"/>
  <path d="m217.34 309.44c9.0938-16.051 12.363-35.805 9.207-55.621-6.0703-38.109-34.965-66.848-67.211-66.848-2.8828 0-5.7891 0.23047-8.6367 0.68359-17.613 2.8047-32.641 13.758-42.324 30.844-9.0938 16.051-12.363 35.805-9.207 55.621 6.0703 38.109 34.965 66.848 67.211 66.848 2.8828 0 5.7891-0.23047 8.6367-0.68359 17.613-2.8047 32.648-13.758 42.324-30.844zm-24.359-13.801c-5.3945 9.5195-13.34 15.559-22.367 16.996-19.59 3.1484-39.633-16.793-43.793-42.918-2.1602-13.57-0.0625-26.859 5.918-37.406 5.3945-9.5195 13.34-15.559 22.367-16.996 1.3984-0.22266 2.8242-0.33594 4.2344-0.33594 18.316 0 35.699 19 39.559 43.254 2.1641 13.566 0.058593 26.855-5.918 37.406z"/>
  <path d="m268.08 212.78c35.566 0 64.496-34.664 64.496-77.281 0-42.617-28.934-77.281-64.496-77.281-35.559 0-64.496 34.664-64.496 77.281 0 42.617 28.938 77.281 64.496 77.281zm0-126.56c20.125 0 36.496 22.102 36.496 49.281 0 27.176-16.367 49.281-36.496 49.281-20.121 0-36.496-22.102-36.496-49.281s16.375-49.281 36.496-49.281z"/>
  <path d="m554.84 188.86c-4.2188-1.0234-8.5586-1.5352-12.898-1.5352-30.754 0-59.328 25.867-67.934 61.512-4.7109 19.5-3.0078 39.453 4.793 56.172 8.3047 17.793 22.422 29.898 39.762 34.074 4.2109 1.0234 8.5508 1.5352 12.898 1.5352h0.003906c30.754 0 59.328-25.871 67.93-61.512 4.7109-19.5 3.0078-39.453-4.793-56.172-8.3086-17.789-22.43-29.895-39.762-34.074zm17.336 83.676c-5.5156 22.855-23.023 40.086-40.711 40.086-2.1328 0-4.2617-0.25391-6.3281-0.75781-8.8867-2.1445-16.328-8.7812-20.957-18.703-5.1289-10.988-6.1758-24.395-2.9531-37.754 5.5156-22.855 23.023-40.086 40.719-40.086 2.1289 0 4.2578 0.25391 6.3281 0.75781 8.8867 2.1445 16.328 8.7812 20.957 18.703 5.1172 10.984 6.1719 24.398 2.9453 37.754z"/>
  <path d="m431.48 212.78c35.559 0 64.496-34.664 64.496-77.281 0-42.617-28.934-77.281-64.496-77.281-35.566 0-64.496 34.664-64.496 77.281 0.003907 42.617 28.938 77.281 64.496 77.281zm0-126.56c20.121 0 36.496 22.102 36.496 49.281 0 27.176-16.367 49.281-36.496 49.281-20.125 0-36.496-22.102-36.496-49.281 0.003907-27.18 16.375-49.281 36.496-49.281z"/>
 </g>
</svg>
